# xmcd
#
# Track frame offsets:
#	150
#	22716
#	42977
#	62589
#	84004
#	107771
#	127000
#	142147
#	164135
#	178554
#	192321
#	216578
#	235679
#	253908
#	288197
#	306774
#	340408
#
# Disc length: 4779 seconds
#
# Revision: 0
# Processed by: cddbd v1.5.2PL0 Copyright (c) Steve Scherf et al.
# Submitted via: audiograbber 1.83.01
#
DISCID=fa12a911
DTITLE=Ilse DeLange - Live in Amsterdam
DYEAR=2007
DGENRE=
TTITLE0=Don't you let go of me
TTITLE1=Reach for the light
TTITLE2=The lonely one
TTITLE3=World of hurt
TTITLE4=Livin' on love
TTITLE5=I love you
TTITLE6=Tapdancing on the highwire
TTITLE7=Flying blind
TTITLE8=Sister golden hair
TTITLE9=I'd be yours
TTITLE10=Ride the wind to me
TTITLE11=I will always love you
TTITLE12=The great escape
TTITLE13=I'm not so tough
TTITLE14=Was it love
TTITLE15=The valley
TTITLE16=Gegevens track
EXTD=
EXTT0=
EXTT1=
EXTT2=
EXTT3=
EXTT4=
EXTT5=
EXTT6=
EXTT7=
EXTT8=
EXTT9=
EXTT10=
EXTT11=
EXTT12=
EXTT13=
EXTT14=
EXTT15=
EXTT16=
PLAYORDER=
